<?xml version='1.0' encoding='utf-8'?>
<svg xmlns="http://www.w3.org/2000/svg" width="308pt" height="436pt" viewBox="0.00 0.00 308.00 436.00">
<g id="graph0" class="graph" transform="scale(1 1) rotate(0) translate(18 418.2)">
<title>G</title>
<polygon fill="#faf8f2" stroke="none" points="-18,18 -18,-418.2 290,-418.2 290,18 -18,18" />

<g id="node1" class="node">
<title>A</title>
<path fill="#f0eadb" stroke="#938b7c" stroke-width="1.1" d="M248.01,-400.2C248.01,-400.2 116.99,-400.2 116.99,-400.2 110.99,-400.2 104.99,-394.2 104.99,-388.2 104.99,-388.2 104.99,-371.64 104.99,-371.64 104.99,-365.64 110.99,-359.64 116.99,-359.64 116.99,-359.64 248.01,-359.64 248.01,-359.64 254.01,-359.64 260.01,-365.64 260.01,-371.64 260.01,-371.64 260.01,-388.2 260.01,-388.2 260.01,-394.2 254.01,-400.2 248.01,-400.2" />
<g aria-label="需求与验收条件" fill="#30332f"><title>需求与验收条件</title><path d="M194 571V521H409V571ZM172 466V416H410V466ZM585 466V415H830V466ZM585 571V521H806V571ZM76 681V490H144V626H461V389H533V626H855V490H925V681H533V740H865V800H134V740H461V681ZM143 224V-78H214V162H362V-72H431V162H584V-72H653V162H809V-4C809 -14 807 -17 795 -17C785 -18 751 -18 710 -17C719 -35 730 -61 734 -80C788 -80 826 -80 851 -68C876 -58 882 -40 882 -5V224H504L531 295H938V356H65V295H453C447 272 440 247 432 224Z" transform="translate(123.0000,-374.8200) scale(0.017000,-0.017000)" /><path d="M117 501C180 444 252 363 283 309L344 354C311 408 237 485 174 540ZM43 89 90 21C193 80 330 162 460 242V22C460 2 453 -3 434 -4C414 -4 349 -5 280 -2C292 -25 303 -60 308 -82C396 -82 456 -80 490 -67C523 -54 537 -31 537 22V420C623 235 749 82 912 4C924 24 949 54 967 69C858 116 763 198 687 299C753 356 835 437 896 508L832 554C786 492 711 412 648 355C602 426 565 505 537 586V599H939V672H816L859 721C818 754 737 802 674 834L629 786C690 755 765 707 806 672H537V838H460V672H65V599H460V320C308 233 145 141 43 89Z" transform="translate(140.0000,-374.8200) scale(0.017000,-0.017000)" /><path d="M57 238V166H681V238ZM261 818C236 680 195 491 164 380L227 379H243H807C784 150 758 45 721 15C708 4 694 3 669 3C640 3 562 4 484 11C499 -10 510 -41 512 -64C583 -68 655 -70 691 -68C734 -65 760 -59 786 -33C832 11 859 127 888 413C890 424 891 450 891 450H261C273 504 287 567 300 630H876V702H315L336 810Z" transform="translate(157.0000,-374.8200) scale(0.017000,-0.017000)" /><path d="M31 148 47 85C122 106 214 131 304 157L297 215C198 189 101 163 31 148ZM533 530V465H831V530ZM467 362C496 286 523 186 531 121L593 138C584 203 555 301 526 376ZM644 387C661 312 679 212 684 147L746 157C740 222 722 320 702 396ZM107 656C100 548 88 399 75 311H344C331 105 315 24 294 2C286 -8 275 -10 259 -10C240 -10 194 -9 145 -4C156 -22 164 -48 165 -67C213 -70 260 -71 285 -69C315 -66 333 -60 350 -39C382 -7 396 87 412 342C413 351 414 373 414 373L347 372H335C347 480 362 660 372 795H64V730H303C295 610 282 468 270 372H147C156 456 165 565 171 652ZM667 847C605 707 495 584 375 508C389 493 411 463 420 448C514 514 605 608 674 718C744 621 845 517 936 451C944 471 961 503 974 520C881 580 773 686 710 781L732 826ZM435 35V-31H945V35H792C841 127 897 259 938 365L870 382C837 277 776 128 727 35Z" transform="translate(174.0000,-374.8200) scale(0.017000,-0.017000)" /><path d="M588 574H805C784 447 751 338 703 248C651 340 611 446 583 559ZM577 840C548 666 495 502 409 401C426 386 453 353 463 338C493 375 519 418 543 466C574 361 613 264 662 180C604 96 527 30 426 -19C442 -35 466 -66 475 -81C570 -30 645 35 704 115C762 34 830 -31 912 -76C923 -57 947 -29 964 -15C878 27 806 95 747 178C811 285 853 416 881 574H956V645H611C628 703 643 765 654 828ZM92 100C111 116 141 130 324 197V-81H398V825H324V270L170 219V729H96V237C96 197 76 178 61 169C73 152 87 119 92 100Z" transform="translate(191.0000,-374.8200) scale(0.017000,-0.017000)" /><path d="M300 182C252 121 162 48 96 10C112 -2 134 -27 146 -43C214 1 307 84 360 155ZM629 145C699 88 780 6 818 -47L875 -4C836 50 752 129 683 184ZM667 683C624 631 568 586 502 548C439 585 385 628 344 679L348 683ZM378 842C326 751 223 647 74 575C91 564 115 538 128 520C191 554 246 592 294 633C333 587 379 546 431 511C311 454 171 418 35 399C49 382 64 351 70 332C219 356 372 399 502 468C621 404 764 361 919 339C929 359 948 390 964 406C820 424 686 458 574 510C661 566 734 636 782 721L732 752L718 748H405C426 774 444 800 460 826ZM461 393V287H147V220H461V3C461 -8 457 -11 446 -11C435 -12 395 -12 357 -10C367 -29 377 -57 380 -76C438 -76 477 -76 503 -65C530 -54 537 -35 537 3V220H852V287H537V393Z" transform="translate(208.0000,-374.8200) scale(0.017000,-0.017000)" /><path d="M317 341V268H604V-80H679V268H953V341H679V562H909V635H679V828H604V635H470C483 680 494 728 504 775L432 790C409 659 367 530 309 447C327 438 359 420 373 409C400 451 425 504 446 562H604V341ZM268 836C214 685 126 535 32 437C45 420 67 381 75 363C107 397 137 437 167 480V-78H239V597C277 667 311 741 339 815Z" transform="translate(225.0000,-374.8200) scale(0.017000,-0.017000)" /></g></g>

<g id="node2" class="node">
<title>B</title>
<path fill="#e3ebe3" stroke="#938b7c" stroke-width="1.1" d="M177.51,-314.64C177.51,-314.64 63.49,-314.64 63.49,-314.64 57.49,-314.64 51.49,-308.64 51.49,-302.64 51.49,-302.64 51.49,-286.08 51.49,-286.08 51.49,-280.08 57.49,-274.08 63.49,-274.08 63.49,-274.08 177.51,-274.08 177.51,-274.08 183.51,-274.08 189.51,-280.08 189.51,-286.08 189.51,-286.08 189.51,-302.64 189.51,-302.64 189.51,-308.64 183.51,-314.64 177.51,-314.64" />
<g aria-label="实现核心路径" fill="#30332f"><title>实现核心路径</title><path d="M538 107C671 57 804 -12 885 -74L931 -15C848 44 708 113 574 162ZM240 557C294 525 358 475 387 440L435 494C404 530 339 575 285 605ZM140 401C197 370 264 320 296 284L342 341C309 376 241 422 185 451ZM90 726V523H165V656H834V523H912V726H569C554 761 528 810 503 847L429 824C447 794 466 758 480 726ZM71 256V191H432C376 94 273 29 81 -11C97 -28 116 -57 124 -77C349 -25 461 62 518 191H935V256H541C570 353 577 469 581 606H503C499 464 493 349 461 256Z" transform="translate(69.5000,-289.2600) scale(0.017000,-0.017000)" /><path d="M432 791V259H504V725H807V259H881V791ZM43 100 60 27C155 56 282 94 401 129L392 199L261 160V413H366V483H261V702H386V772H55V702H189V483H70V413H189V139C134 124 84 110 43 100ZM617 640V447C617 290 585 101 332 -29C347 -40 371 -68 379 -83C545 4 624 123 660 243V32C660 -36 686 -54 756 -54H848C934 -54 946 -14 955 144C936 148 912 159 894 174C889 31 883 3 848 3H766C738 3 730 10 730 39V276H669C683 334 687 392 687 445V640Z" transform="translate(86.5000,-289.2600) scale(0.017000,-0.017000)" /><path d="M858 370C772 201 580 56 348 -19C362 -34 383 -63 392 -81C517 -37 630 24 724 99C791 44 867 -25 906 -70L963 -19C923 26 845 92 777 145C841 204 895 270 936 342ZM613 822C634 785 653 739 663 703H401V634H592C558 576 502 485 482 464C466 447 438 440 417 436C424 419 436 382 439 364C458 371 487 377 667 389C592 313 499 246 398 200C412 186 432 159 441 143C617 228 770 371 856 525L785 549C769 517 748 486 724 455L555 446C591 501 639 578 673 634H957V703H728L742 708C734 745 708 802 683 844ZM192 840V647H58V577H188C157 440 95 281 33 197C46 179 65 146 73 124C116 188 159 290 192 397V-79H264V445C291 395 322 336 336 305L382 358C364 387 291 501 264 536V577H377V647H264V840Z" transform="translate(103.5000,-289.2600) scale(0.017000,-0.017000)" /><path d="M295 561V65C295 -34 327 -62 435 -62C458 -62 612 -62 637 -62C750 -62 773 -6 784 184C763 190 731 204 712 218C705 45 696 9 634 9C599 9 468 9 441 9C384 9 373 18 373 65V561ZM135 486C120 367 87 210 44 108L120 76C161 184 192 353 207 472ZM761 485C817 367 872 208 892 105L966 135C945 238 889 392 831 512ZM342 756C437 689 555 590 611 527L665 584C607 647 487 741 393 805Z" transform="translate(120.5000,-289.2600) scale(0.017000,-0.017000)" /><path d="M156 732H345V556H156ZM38 42 51 -31C157 -6 301 29 438 64L431 131L299 100V279H405C419 265 433 244 441 229C461 238 481 247 501 258V-78H571V-41H823V-75H894V256L926 241C937 261 958 290 973 304C882 338 806 391 743 452C807 527 858 616 891 720L844 741L830 738H636C648 766 658 794 668 823L597 841C559 720 493 606 414 532V798H89V490H231V84L153 66V396H89V52ZM571 25V218H823V25ZM797 672C771 610 736 554 695 504C653 553 620 605 596 655L605 672ZM546 283C599 316 651 355 697 402C740 358 789 317 845 283ZM650 454C583 386 504 333 424 298V346H299V490H414V522C431 510 456 489 467 477C499 509 530 548 558 592C583 547 613 500 650 454Z" transform="translate(137.5000,-289.2600) scale(0.017000,-0.017000)" /><path d="M257 838C214 767 127 684 49 632C62 617 81 588 89 570C177 630 270 723 328 810ZM384 787V718H768C666 586 479 476 312 421C328 406 347 378 357 360C454 395 555 445 646 508C742 466 856 406 915 366L957 428C900 464 797 514 707 553C781 612 844 681 887 759L833 790L819 787ZM384 332V262H604V18H322V-52H956V18H680V262H897V332ZM274 617C218 514 124 411 36 345C48 327 69 289 76 273C111 301 146 335 181 373V-80H257V464C288 505 317 548 341 591Z" transform="translate(154.5000,-289.2600) scale(0.017000,-0.017000)" /></g></g>

<g id="edge1" class="edge">
<title>A-&gt;B</title>
<path fill="none" stroke="#797e77" d="M167.81,-359.12C159.47,-347.88 148.93,-333.67 139.91,-321.53" />
<polygon fill="#797e77" stroke="#797e77" points="142.13,-320.4 135.99,-316.24 138.19,-323.32 142.13,-320.4" />
</g>

<g id="node3" class="node">
<title>C</title>
<path fill="#e8ebef" stroke="#938b7c" stroke-width="1.1" d="M177,-211.68C177,-211.68 12,-211.68 12,-211.68 6,-211.68 0,-205.68 0,-199.68 0,-199.68 0,-183.12 0,-183.12 0,-177.12 6,-171.12 12,-171.12 12,-171.12 177,-171.12 177,-171.12 183,-171.12 189,-177.12 189,-183.12 189,-183.12 189,-199.68 189,-199.68 189,-205.68 183,-211.68 177,-211.68" />
<g aria-label="测试正常与失败情况" fill="#30332f"><title>测试正常与失败情况</title><path d="M486 92C537 42 596 -28 624 -73L673 -39C644 4 584 72 533 121ZM312 782V154H371V724H588V157H649V782ZM867 827V7C867 -8 861 -13 847 -13C833 -14 786 -14 733 -13C742 -31 752 -60 755 -76C825 -77 868 -75 894 -64C919 -53 929 -34 929 7V827ZM730 750V151H790V750ZM446 653V299C446 178 426 53 259 -32C270 -41 289 -66 296 -78C476 13 504 164 504 298V653ZM81 776C137 745 209 697 243 665L289 726C253 756 180 800 126 829ZM38 506C93 475 166 430 202 400L247 460C209 489 135 532 81 560ZM58 -27 126 -67C168 25 218 148 254 253L194 292C154 180 98 50 58 -27Z" transform="translate(18.0000,-186.3000) scale(0.017000,-0.017000)" /><path d="M120 775C171 731 235 667 265 626L317 678C287 718 222 778 170 821ZM777 796C819 752 865 691 885 651L940 688C918 727 871 785 829 828ZM50 526V454H189V94C189 51 159 22 141 11C154 -4 172 -36 179 -54C194 -36 221 -18 392 97C385 112 376 141 371 161L260 89V526ZM671 835 677 632H346V560H680C698 183 745 -74 869 -77C907 -77 947 -35 967 134C953 140 921 160 907 175C901 77 889 21 871 21C809 24 770 251 754 560H959V632H751C749 697 747 765 747 835ZM360 61 381 -10C465 15 574 47 679 78L669 145L552 112V344H646V414H378V344H483V93Z" transform="translate(35.0000,-186.3000) scale(0.017000,-0.017000)" /><path d="M188 510V38H52V-35H950V38H565V353H878V426H565V693H917V767H90V693H486V38H265V510Z" transform="translate(52.0000,-186.3000) scale(0.017000,-0.017000)" /><path d="M313 491H692V393H313ZM152 253V-35H227V185H474V-80H551V185H784V44C784 32 780 29 764 27C748 27 695 27 635 29C645 9 657 -19 661 -39C739 -39 789 -39 821 -28C852 -17 860 4 860 43V253H551V336H768V548H241V336H474V253ZM168 803C198 769 231 719 247 685H86V470H158V619H847V470H921V685H544V841H468V685H259L320 714C303 746 268 795 236 831ZM763 832C743 796 706 743 678 710L740 685C769 715 807 761 841 805Z" transform="translate(69.0000,-186.3000) scale(0.017000,-0.017000)" /><path d="M57 238V166H681V238ZM261 818C236 680 195 491 164 380L227 379H243H807C784 150 758 45 721 15C708 4 694 3 669 3C640 3 562 4 484 11C499 -10 510 -41 512 -64C583 -68 655 -70 691 -68C734 -65 760 -59 786 -33C832 11 859 127 888 413C890 424 891 450 891 450H261C273 504 287 567 300 630H876V702H315L336 810Z" transform="translate(86.0000,-186.3000) scale(0.017000,-0.017000)" /><path d="M456 840V665H264C283 711 300 760 314 810L236 826C200 690 138 556 60 471C79 463 116 443 132 432C167 475 200 529 230 589H456V529C456 483 454 436 446 390H54V315H429C387 185 285 66 42 -16C58 -31 80 -63 89 -81C345 7 456 138 502 282C580 96 712 -26 921 -80C932 -60 954 -28 971 -12C767 34 635 146 566 315H947V390H526C532 436 534 483 534 529V589H863V665H534V840Z" transform="translate(103.0000,-186.3000) scale(0.017000,-0.017000)" /><path d="M234 656V386C234 257 221 77 39 -28C54 -41 75 -64 85 -79C278 42 300 236 300 386V656ZM288 127C332 70 387 -8 414 -54L469 -15C442 29 386 104 341 159ZM89 792V184H152V724H380V186H445V792ZM624 596H811C794 440 760 316 711 218C658 304 617 403 589 508C601 536 613 566 624 596ZM618 831C587 677 535 526 463 427C477 412 500 380 509 365C522 384 535 404 548 426C580 326 622 234 674 154C620 74 553 16 473 -25C488 -37 510 -63 519 -79C595 -38 660 19 715 97C772 23 839 -36 917 -78C928 -61 949 -36 965 -22C883 17 811 80 752 158C813 268 855 412 876 596H947V664H646C662 714 675 765 686 816Z" transform="translate(120.0000,-186.3000) scale(0.017000,-0.017000)" /><path d="M152 840V-79H220V840ZM73 647C67 569 51 458 27 390L86 370C109 445 125 561 129 640ZM229 674C250 627 273 564 282 526L335 552C325 588 301 648 279 694ZM446 210H808V134H446ZM446 267V342H808V267ZM590 840V762H334V704H590V640H358V585H590V516H304V458H958V516H664V585H903V640H664V704H928V762H664V840ZM376 400V-79H446V77H808V5C808 -7 803 -11 790 -12C776 -13 728 -13 677 -11C686 -29 696 -57 699 -76C770 -76 815 -76 843 -64C871 -53 879 -33 879 4V400Z" transform="translate(137.0000,-186.3000) scale(0.017000,-0.017000)" /><path d="M71 734C134 684 207 610 240 560L296 616C261 665 186 735 123 783ZM40 89 100 36C161 129 235 257 290 364L239 415C178 301 96 167 40 89ZM439 721H821V450H439ZM367 793V378H482C471 177 438 48 243 -21C260 -35 281 -62 290 -80C502 1 544 150 558 378H676V37C676 -42 695 -65 771 -65C786 -65 857 -65 874 -65C943 -65 961 -25 968 128C948 134 917 145 901 158C898 25 894 3 866 3C851 3 792 3 781 3C754 3 748 8 748 38V378H897V793Z" transform="translate(154.0000,-186.3000) scale(0.017000,-0.017000)" /></g></g>

<g id="edge2" class="edge">
<title>B-&gt;C</title>
<path fill="none" stroke="#797e77" d="M110.97,-273.69C105.82,-263.06 100.5,-252.08 100.5,-252.08 100.5,-252.08 98.87,-235.9 97.31,-220.38" />
<polygon fill="#797e77" stroke="#797e77" points="99.75,-220.17 96.62,-213.45 94.88,-220.66 99.75,-220.17" />
</g>

<g id="edge6" class="edge">
<title>C-&gt;B</title>
<path fill="none" stroke="#797e77" d="M99.59,-212.15C103.54,-227.49 109.06,-248.95 113.44,-265.95" />
<polygon fill="#797e77" stroke="#797e77" points="110.99,-266.26 115.11,-272.43 115.74,-265.04 110.99,-266.26" />
<g aria-label="未通过" fill="#525b53"><title>未通过</title><path d="M459 839V676H133V602H459V429H62V355H416C326 226 174 101 34 39C51 24 76 -5 89 -24C221 44 362 163 459 296V-80H538V300C636 166 778 42 911 -25C924 -5 949 25 966 40C826 101 673 226 581 355H942V429H538V602H874V676H538V839Z" transform="translate(121.3300,-238.0800) scale(0.012000,-0.012000)" /><path d="M65 757C124 705 200 632 235 585L290 635C253 681 176 751 117 800ZM256 465H43V394H184V110C140 92 90 47 39 -8L86 -70C137 -2 186 56 220 56C243 56 277 22 318 -3C388 -45 471 -57 595 -57C703 -57 878 -52 948 -47C949 -27 961 7 969 26C866 16 714 8 596 8C485 8 400 15 333 56C298 79 276 97 256 108ZM364 803V744H787C746 713 695 682 645 658C596 680 544 701 499 717L451 674C513 651 586 619 647 589H363V71H434V237H603V75H671V237H845V146C845 134 841 130 828 129C816 129 774 129 726 130C735 113 744 88 747 69C814 69 857 69 883 80C909 91 917 109 917 146V589H786C766 601 741 614 712 628C787 667 863 719 917 771L870 807L855 803ZM845 531V443H671V531ZM434 387H603V296H434ZM434 443V531H603V443ZM845 387V296H671V387Z" transform="translate(133.3300,-238.0800) scale(0.012000,-0.012000)" /><path d="M79 774C135 722 199 649 227 602L290 646C259 693 193 763 137 813ZM381 477C432 415 493 327 521 275L584 313C555 365 492 449 441 510ZM262 465H50V395H188V133C143 117 91 72 37 14L89 -57C140 12 189 71 222 71C245 71 277 37 319 11C389 -33 473 -43 597 -43C693 -43 870 -38 941 -34C942 -11 955 27 964 47C867 37 716 28 599 28C487 28 402 36 336 76C302 96 281 116 262 128ZM720 837V660H332V589H720V192C720 174 713 169 693 168C673 167 603 167 530 170C541 148 553 115 557 93C651 93 712 94 747 107C783 119 796 141 796 192V589H935V660H796V837Z" transform="translate(145.3300,-238.0800) scale(0.012000,-0.012000)" /></g></g>

<g id="node4" class="node">
<title>D</title>
<path fill="#f0eadb" stroke="#938b7c" stroke-width="1.1" d="M173.01,-126.12C173.01,-126.12 41.99,-126.12 41.99,-126.12 35.99,-126.12 29.99,-120.12 29.99,-114.12 29.99,-114.12 29.99,-97.56 29.99,-97.56 29.99,-91.56 35.99,-85.56 41.99,-85.56 41.99,-85.56 173.01,-85.56 173.01,-85.56 179.01,-85.56 185.01,-91.56 185.01,-97.56 185.01,-97.56 185.01,-114.12 185.01,-114.12 185.01,-120.12 179.01,-126.12 173.01,-126.12" />
<g aria-label="部署给少量用户" fill="#30332f"><title>部署给少量用户</title><path d="M141 628C168 574 195 502 204 455L272 475C263 521 236 591 206 645ZM627 787V-78H694V718H855C828 639 789 533 751 448C841 358 866 284 866 222C867 187 860 155 840 143C829 136 814 133 799 132C779 132 751 132 722 135C734 114 741 83 742 64C771 62 803 62 828 65C852 68 874 74 890 85C923 108 936 156 936 215C936 284 914 363 824 457C867 550 913 664 948 757L897 790L885 787ZM247 826C262 794 278 755 289 722H80V654H552V722H366C355 756 334 806 314 844ZM433 648C417 591 387 508 360 452H51V383H575V452H433C458 504 485 572 508 631ZM109 291V-73H180V-26H454V-66H529V291ZM180 42V223H454V42Z" transform="translate(48.0000,-100.7400) scale(0.017000,-0.017000)" /><path d="M650 745H819V649H650ZM415 745H581V649H415ZM185 745H346V649H185ZM835 559C804 529 770 500 732 472V524H506V593H894V801H114V593H433V524H157V464H433V388H56V325H466C330 267 181 221 34 190C47 175 65 141 72 125C137 141 202 160 267 181V-79H336V-46H781V-76H854V258H475C524 279 571 301 617 325H946V388H725C788 428 845 473 895 521ZM596 388H506V464H720C682 437 640 412 596 388ZM336 83H781V10H336ZM336 136V202H781V136Z" transform="translate(65.0000,-100.7400) scale(0.017000,-0.017000)" /><path d="M42 53 57 -21C149 3 272 33 389 62L383 129C256 100 128 70 42 53ZM61 423C75 430 99 436 220 453C177 389 137 339 119 320C88 282 64 257 43 253C52 234 63 198 67 182C88 195 123 204 377 255C375 271 375 300 377 319L174 282C252 372 329 483 394 594L328 633C309 595 287 557 264 521L138 508C197 594 254 702 296 806L223 839C184 720 114 591 92 558C71 524 53 501 35 496C44 476 57 438 61 423ZM630 838C585 695 488 558 361 472C377 459 403 433 415 418C444 439 472 462 498 488V443H815V502C843 474 873 449 902 430C915 449 939 477 956 492C853 549 751 669 692 789L703 819ZM805 512H522C577 571 623 639 659 713C699 639 750 569 805 512ZM449 330V-83H522V-29H782V-80H858V330ZM522 39V262H782V39Z" transform="translate(82.0000,-100.7400) scale(0.017000,-0.017000)" /><path d="M228 682C185 569 120 446 53 366C72 358 104 340 118 330C181 414 251 542 299 662ZM703 653C770 555 850 420 889 338L953 375C914 457 832 585 764 683ZM762 322C636 126 375 30 33 -7C47 -26 62 -57 69 -79C423 -34 694 74 830 291ZM449 840V223H523V840Z" transform="translate(99.0000,-100.7400) scale(0.017000,-0.017000)" /><path d="M250 665H747V610H250ZM250 763H747V709H250ZM177 808V565H822V808ZM52 522V465H949V522ZM230 273H462V215H230ZM535 273H777V215H535ZM230 373H462V317H230ZM535 373H777V317H535ZM47 3V-55H955V3H535V61H873V114H535V169H851V420H159V169H462V114H131V61H462V3Z" transform="translate(116.0000,-100.7400) scale(0.017000,-0.017000)" /><path d="M153 770V407C153 266 143 89 32 -36C49 -45 79 -70 90 -85C167 0 201 115 216 227H467V-71H543V227H813V22C813 4 806 -2 786 -3C767 -4 699 -5 629 -2C639 -22 651 -55 655 -74C749 -75 807 -74 841 -62C875 -50 887 -27 887 22V770ZM227 698H467V537H227ZM813 698V537H543V698ZM227 466H467V298H223C226 336 227 373 227 407ZM813 466V298H543V466Z" transform="translate(133.0000,-100.7400) scale(0.017000,-0.017000)" /><path d="M247 615H769V414H246L247 467ZM441 826C461 782 483 726 495 685H169V467C169 316 156 108 34 -41C52 -49 85 -72 99 -86C197 34 232 200 243 344H769V278H845V685H528L574 699C562 738 537 799 513 845Z" transform="translate(150.0000,-100.7400) scale(0.017000,-0.017000)" /></g></g>

<g id="edge3" class="edge">
<title>C-&gt;D</title>
<path fill="none" stroke="#797e77" d="M97.58,-170.6C99.25,-159.88 101.34,-146.46 103.16,-134.71" />
<polygon fill="#797e77" stroke="#797e77" points="105.55,-135.29 104.21,-128 100.71,-134.54 105.55,-135.29" />
</g>

<g id="node5" class="node">
<title>E</title>
<path fill="#e3ebe3" stroke="#938b7c" stroke-width="1.1" d="M260,-40.56C260,-40.56 95,-40.56 95,-40.56 89,-40.56 83,-34.56 83,-28.56 83,-28.56 83,-12 83,-12 83,-6 89,0 95,0 95,0 260,0 260,0 266,0 272,-6 272,-12 272,-12 272,-28.56 272,-28.56 272,-34.56 266,-40.56 260,-40.56" />
<g aria-label="收集完成与失败证据" fill="#30332f"><title>收集完成与失败证据</title><path d="M588 574H805C784 447 751 338 703 248C651 340 611 446 583 559ZM577 840C548 666 495 502 409 401C426 386 453 353 463 338C493 375 519 418 543 466C574 361 613 264 662 180C604 96 527 30 426 -19C442 -35 466 -66 475 -81C570 -30 645 35 704 115C762 34 830 -31 912 -76C923 -57 947 -29 964 -15C878 27 806 95 747 178C811 285 853 416 881 574H956V645H611C628 703 643 765 654 828ZM92 100C111 116 141 130 324 197V-81H398V825H324V270L170 219V729H96V237C96 197 76 178 61 169C73 152 87 119 92 100Z" transform="translate(101.0000,-15.1800) scale(0.017000,-0.017000)" /><path d="M460 292V225H54V162H393C297 90 153 26 29 -6C46 -22 67 -50 79 -69C207 -29 357 47 460 135V-79H535V138C637 52 789 -23 920 -61C931 -42 952 -15 968 1C843 31 701 92 605 162H947V225H535V292ZM490 552V486H247V552ZM467 824C483 797 500 763 512 734H286C307 765 326 797 343 827L265 842C221 754 140 642 30 558C47 548 72 526 85 510C116 536 145 563 172 591V271H247V303H919V363H562V432H849V486H562V552H846V606H562V672H887V734H591C578 766 556 810 534 843ZM490 606H247V672H490ZM490 432V363H247V432Z" transform="translate(118.0000,-15.1800) scale(0.017000,-0.017000)" /><path d="M227 546V477H771V546ZM56 360V290H325C313 112 272 25 44 -19C58 -34 78 -62 84 -81C334 -28 387 81 402 290H578V39C578 -41 601 -64 694 -64C713 -64 827 -64 847 -64C927 -64 948 -29 957 108C937 114 905 126 888 138C885 23 879 5 841 5C815 5 721 5 701 5C660 5 653 10 653 39V290H943V360ZM421 827C439 796 458 758 471 725H82V503H157V653H838V503H916V725H560C546 762 520 812 496 849Z" transform="translate(135.0000,-15.1800) scale(0.017000,-0.017000)" /><path d="M544 839C544 782 546 725 549 670H128V389C128 259 119 86 36 -37C54 -46 86 -72 99 -87C191 45 206 247 206 388V395H389C385 223 380 159 367 144C359 135 350 133 335 133C318 133 275 133 229 138C241 119 249 89 250 68C299 65 345 65 371 67C398 70 415 77 431 96C452 123 457 208 462 433C462 443 463 465 463 465H206V597H554C566 435 590 287 628 172C562 96 485 34 396 -13C412 -28 439 -59 451 -75C528 -29 597 26 658 92C704 -11 764 -73 841 -73C918 -73 946 -23 959 148C939 155 911 172 894 189C888 56 876 4 847 4C796 4 751 61 714 159C788 255 847 369 890 500L815 519C783 418 740 327 686 247C660 344 641 463 630 597H951V670H626C623 725 622 781 622 839ZM671 790C735 757 812 706 850 670L897 722C858 756 779 805 716 836Z" transform="translate(152.0000,-15.1800) scale(0.017000,-0.017000)" /><path d="M57 238V166H681V238ZM261 818C236 680 195 491 164 380L227 379H243H807C784 150 758 45 721 15C708 4 694 3 669 3C640 3 562 4 484 11C499 -10 510 -41 512 -64C583 -68 655 -70 691 -68C734 -65 760 -59 786 -33C832 11 859 127 888 413C890 424 891 450 891 450H261C273 504 287 567 300 630H876V702H315L336 810Z" transform="translate(169.0000,-15.1800) scale(0.017000,-0.017000)" /><path d="M456 840V665H264C283 711 300 760 314 810L236 826C200 690 138 556 60 471C79 463 116 443 132 432C167 475 200 529 230 589H456V529C456 483 454 436 446 390H54V315H429C387 185 285 66 42 -16C58 -31 80 -63 89 -81C345 7 456 138 502 282C580 96 712 -26 921 -80C932 -60 954 -28 971 -12C767 34 635 146 566 315H947V390H526C532 436 534 483 534 529V589H863V665H534V840Z" transform="translate(186.0000,-15.1800) scale(0.017000,-0.017000)" /><path d="M234 656V386C234 257 221 77 39 -28C54 -41 75 -64 85 -79C278 42 300 236 300 386V656ZM288 127C332 70 387 -8 414 -54L469 -15C442 29 386 104 341 159ZM89 792V184H152V724H380V186H445V792ZM624 596H811C794 440 760 316 711 218C658 304 617 403 589 508C601 536 613 566 624 596ZM618 831C587 677 535 526 463 427C477 412 500 380 509 365C522 384 535 404 548 426C580 326 622 234 674 154C620 74 553 16 473 -25C488 -37 510 -63 519 -79C595 -38 660 19 715 97C772 23 839 -36 917 -78C928 -61 949 -36 965 -22C883 17 811 80 752 158C813 268 855 412 876 596H947V664H646C662 714 675 765 686 816Z" transform="translate(203.0000,-15.1800) scale(0.017000,-0.017000)" /><path d="M102 769C156 722 224 657 257 615L309 667C276 708 206 771 151 814ZM352 30V-40H962V30H724V360H922V431H724V693H940V763H386V693H647V30H512V512H438V30ZM50 526V454H191V107C191 54 154 15 135 -1C148 -12 172 -37 181 -52C196 -32 223 -10 394 124C385 139 371 169 364 188L264 112V526Z" transform="translate(220.0000,-15.1800) scale(0.017000,-0.017000)" /><path d="M484 238V-81H550V-40H858V-77H927V238H734V362H958V427H734V537H923V796H395V494C395 335 386 117 282 -37C299 -45 330 -67 344 -79C427 43 455 213 464 362H663V238ZM468 731H851V603H468ZM468 537H663V427H467L468 494ZM550 22V174H858V22ZM167 839V638H42V568H167V349C115 333 67 319 29 309L49 235L167 273V14C167 0 162 -4 150 -4C138 -5 99 -5 56 -4C65 -24 75 -55 77 -73C140 -74 179 -71 203 -59C228 -48 237 -27 237 14V296L352 334L341 403L237 370V568H350V638H237V839Z" transform="translate(237.0000,-15.1800) scale(0.017000,-0.017000)" /></g></g>

<g id="edge4" class="edge">
<title>D-&gt;E</title>
<path fill="none" stroke="#797e77" d="M124.09,-85.04C133.5,-73.8 145.4,-59.59 155.58,-47.45" />
<polygon fill="#797e77" stroke="#797e77" points="157.44,-49.04 160.06,-42.1 153.68,-45.89 157.44,-49.04" />
</g>

<g id="edge5" class="edge">
<title>E-&gt;A</title>
<path fill="none" stroke="#797e77" d="M193.38,-41.08C213.19,-65.79 244.5,-104.84 244.5,-104.84 244.5,-295.36 244.5,-295.36 244.5,-295.36 244.5,-295.36 220.29,-327.98 202.13,-352.46" />
<polygon fill="#797e77" stroke="#797e77" points="200.3,-350.82 198.1,-357.9 204.23,-353.74 200.3,-350.82" />
</g>
</g>
</svg>